<svg width="500" height="500" viewBox="0 0 500 500" fill="none" xmlns="http://www.w3.org/2000/svg">
<path d="M250 277V63C250 125.5 144.5 183 94 183L94 397C144.5 397 250 339.5 250 277Z" fill="#938F8F"/>
<path d="M250 277V63C250 125.5 355.5 183 406 183L406 397C355.5 397 250 339.5 250 277Z" fill="#595252"/>
<path d="M350 326.367V210.789L250 268.904V384.156L350 326.367Z" fill="#938F8F"/>
<path d="M350 210.789L250 153L150 210.789L250 268.904L350 210.789Z" fill="#D9D9D9"/>
<path d="M150 326.367L250 384.156V268.904L150 210.789V326.367Z" fill="#595252"/>
</svg>
